<mxfile host="app.diagrams.net" agent="Mozilla/5.0 (Macintosh; Intel Mac OS X 10_15_7) AppleWebKit/605.1.15 (KHTML, like Gecko) Version/18.0.1 Safari/605.1.15" version="24.7.17">
  <diagram name="Page-1" id="rpZU62VqwWqhf-BvHGLH">
    <mxGraphModel dx="836" dy="470" grid="1" gridSize="10" guides="1" tooltips="1" connect="1" arrows="1" fold="1" page="1" pageScale="1" pageWidth="827" pageHeight="1169" math="0" shadow="0">
      <root>
        <mxCell id="0" />
        <mxCell id="1" parent="0" />
        <mxCell id="KPhx_EbE2pEpN97NNlz3-1" style="edgeStyle=orthogonalEdgeStyle;rounded=0;orthogonalLoop=1;jettySize=auto;html=1;exitX=0.75;exitY=0;exitDx=0;exitDy=0;entryX=0.25;entryY=0;entryDx=0;entryDy=0;" edge="1" parent="1" source="KPhx_EbE2pEpN97NNlz3-5" target="KPhx_EbE2pEpN97NNlz3-9">
          <mxGeometry relative="1" as="geometry" />
        </mxCell>
        <mxCell id="KPhx_EbE2pEpN97NNlz3-2" value="Get product (GET)" style="edgeLabel;html=1;align=center;verticalAlign=middle;resizable=0;points=[];" vertex="1" connectable="0" parent="KPhx_EbE2pEpN97NNlz3-1">
          <mxGeometry x="0.07" y="-1" relative="1" as="geometry">
            <mxPoint as="offset" />
          </mxGeometry>
        </mxCell>
        <mxCell id="KPhx_EbE2pEpN97NNlz3-5" value="Cart Service" style="rounded=1;whiteSpace=wrap;html=1;" vertex="1" parent="1">
          <mxGeometry x="480" y="555" width="120" height="60" as="geometry" />
        </mxCell>
        <mxCell id="KPhx_EbE2pEpN97NNlz3-14" style="edgeStyle=orthogonalEdgeStyle;rounded=0;orthogonalLoop=1;jettySize=auto;html=1;exitX=0.75;exitY=0;exitDx=0;exitDy=0;entryX=0.25;entryY=0;entryDx=0;entryDy=0;" edge="1" parent="1" source="KPhx_EbE2pEpN97NNlz3-9" target="KPhx_EbE2pEpN97NNlz3-5">
          <mxGeometry relative="1" as="geometry">
            <Array as="points">
              <mxPoint x="830" y="490" />
              <mxPoint x="510" y="490" />
            </Array>
          </mxGeometry>
        </mxCell>
        <mxCell id="KPhx_EbE2pEpN97NNlz3-15" value="Returns a product" style="edgeLabel;html=1;align=center;verticalAlign=middle;resizable=0;points=[];" vertex="1" connectable="0" parent="KPhx_EbE2pEpN97NNlz3-14">
          <mxGeometry x="-0.0592" relative="1" as="geometry">
            <mxPoint as="offset" />
          </mxGeometry>
        </mxCell>
        <mxCell id="KPhx_EbE2pEpN97NNlz3-9" value="Product Service" style="rounded=1;whiteSpace=wrap;html=1;" vertex="1" parent="1">
          <mxGeometry x="740" y="555" width="120" height="60" as="geometry" />
        </mxCell>
        <mxCell id="KPhx_EbE2pEpN97NNlz3-10" value="Product&amp;nbsp;&lt;div&gt;Repo&lt;/div&gt;" style="shape=cylinder3;whiteSpace=wrap;html=1;boundedLbl=1;backgroundOutline=1;size=15;" vertex="1" parent="1">
          <mxGeometry x="770" y="680" width="60" height="80" as="geometry" />
        </mxCell>
        <mxCell id="KPhx_EbE2pEpN97NNlz3-11" style="edgeStyle=orthogonalEdgeStyle;rounded=0;orthogonalLoop=1;jettySize=auto;html=1;exitX=0.5;exitY=1;exitDx=0;exitDy=0;entryX=0.5;entryY=0;entryDx=0;entryDy=0;entryPerimeter=0;" edge="1" parent="1" source="KPhx_EbE2pEpN97NNlz3-9" target="KPhx_EbE2pEpN97NNlz3-10">
          <mxGeometry relative="1" as="geometry" />
        </mxCell>
        <mxCell id="KPhx_EbE2pEpN97NNlz3-12" value="Get product based on ID" style="edgeLabel;html=1;align=center;verticalAlign=middle;resizable=0;points=[];" vertex="1" connectable="0" parent="KPhx_EbE2pEpN97NNlz3-11">
          <mxGeometry x="-0.156" y="-3" relative="1" as="geometry">
            <mxPoint as="offset" />
          </mxGeometry>
        </mxCell>
      </root>
    </mxGraphModel>
  </diagram>
</mxfile>
